<svg width="36" height="36" viewBox="0 0 36 36" fill="none" xmlns="http://www.w3.org/2000/svg">
<rect x="0.5" y="0.5" width="35" height="35" rx="7.5" stroke="#1A1B1F"/>
<path d="M16.9254 17.5717C16.9254 17.5717 18.8124 17.4251 18.8124 15.1193C18.8124 12.8105 17.2685 11.6875 15.3118 11.6875H8.875V24.579H15.3118C15.3118 24.579 19.2422 24.7076 19.2422 20.7732C19.2412 20.7722 19.4128 17.5717 16.9254 17.5717ZM11.7114 13.9774H15.3118C15.3118 13.9774 16.1874 13.9774 16.1874 15.3178C16.1874 16.6602 15.6728 16.8547 15.0884 16.8547H11.7114V13.9774ZM15.1292 22.2871H11.7114V18.8413H15.3118C15.3118 18.8413 16.6163 18.8234 16.6163 20.6116C16.6163 22.1196 15.6419 22.2761 15.1292 22.2871ZM24.4822 14.9657C19.7239 14.9657 19.7279 19.9195 19.7279 19.9195C19.7279 19.9195 19.4028 24.8473 24.4822 24.8473C24.4822 24.8473 28.7139 25.1006 28.7139 21.4194H26.5377C26.5377 21.4194 26.6095 22.8067 24.555 22.8067C24.555 22.8067 22.3768 22.9583 22.3768 20.5627H28.7827C28.7837 20.5617 29.4898 14.9657 24.4822 14.9657ZM26.418 18.8413H22.3549C22.3549 18.8413 22.6202 16.8547 24.5311 16.8547C26.442 16.8547 26.418 18.8413 26.418 18.8413ZM26.9237 12.4445H21.8203V14.0342H26.9237V12.4445Z" fill="#1A1B1F"/>
</svg>
