<svg width="14" height="14" viewBox="0 0 14 14" fill="none" xmlns="http://www.w3.org/2000/svg">
<path d="M7.00516 1.80689C6.68343 1.80689 6.42357 2.06675 6.42357 2.38849L6.41944 6.4184L2.3854 6.4184C2.06366 6.4184 1.8038 6.67827 1.8038 7C1.8038 7.32173 2.06366 7.5816 2.3854 7.5816L6.41944 7.5816L6.41944 11.6156C6.41944 11.9374 6.6793 12.1972 7.00104 12.1972C7.32277 12.1972 7.58263 11.9374 7.58263 11.6156L7.58263 7.5816H11.6167C11.9384 7.5816 12.1983 7.32173 12.1983 7C12.1983 6.67827 11.9384 6.4184 11.6167 6.4184H7.58263L7.58263 2.38436C7.58263 2.07088 7.31865 1.80689 7.00516 1.80689Z" fill="#1A1B1F"/>
</svg>
