<svg width="36" height="36" viewBox="0 0 36 36" fill="none" xmlns="http://www.w3.org/2000/svg">
<rect x="0.5" y="0.5" width="35" height="35" rx="7.5" stroke="url(#paint0_radial_510_557)"/>
<path d="M26.7707 14.3968C26.7608 13.6549 26.6219 12.9204 26.3602 12.2261C26.1333 11.6405 25.7868 11.1086 25.3426 10.6645C24.8985 10.2204 24.3667 9.87385 23.7811 9.64693C23.0957 9.38966 22.3716 9.25054 21.6397 9.23552C20.6974 9.1934 20.3986 9.18164 18.0065 9.18164C15.6144 9.18164 15.3078 9.18164 14.3723 9.23552C13.6408 9.25065 12.917 9.38977 12.232 9.64693C11.6463 9.87369 11.1143 10.2202 10.6702 10.6643C10.2261 11.1085 9.87955 11.6404 9.65279 12.2261C9.395 12.911 9.25619 13.6349 9.24236 14.3665C9.20023 15.3098 9.1875 15.6086 9.1875 18.0007C9.1875 20.3928 9.1875 20.6984 9.24236 21.6348C9.25705 22.3676 9.39517 23.0905 9.65279 23.7772C9.87993 24.3627 10.2267 24.8944 10.671 25.3384C11.1153 25.7823 11.6472 26.1287 12.233 26.3554C12.9161 26.623 13.64 26.7721 14.3733 26.7962C15.3166 26.8383 15.6154 26.851 18.0075 26.851C20.3996 26.851 20.7062 26.851 21.6417 26.7962C22.3736 26.7818 23.0977 26.643 23.783 26.3857C24.3685 26.1586 24.9002 25.8119 25.3443 25.3678C25.7884 24.9237 26.135 24.392 26.3622 23.8065C26.6198 23.1208 26.758 22.3979 26.7726 21.6642C26.8148 20.7219 26.8275 20.4231 26.8275 18.03C26.8255 15.638 26.8255 15.3343 26.7707 14.3968ZM18.0006 22.5243C15.4988 22.5243 13.4721 20.4976 13.4721 17.9958C13.4721 15.494 15.4988 13.4672 18.0006 13.4672C19.2017 13.4672 20.3535 13.9443 21.2028 14.7936C22.0521 15.6429 22.5292 16.7947 22.5292 17.9958C22.5292 19.1968 22.0521 20.3487 21.2028 21.1979C20.3535 22.0472 19.2017 22.5243 18.0006 22.5243ZM22.7094 14.3557C22.5707 14.3558 22.4333 14.3286 22.3052 14.2756C22.177 14.2226 22.0605 14.1448 21.9624 14.0467C21.8644 13.9486 21.7866 13.8322 21.7336 13.704C21.6805 13.5758 21.6533 13.4384 21.6534 13.2997C21.6534 13.1611 21.6807 13.0239 21.7338 12.8958C21.7868 12.7678 21.8646 12.6514 21.9626 12.5534C22.0606 12.4554 22.177 12.3776 22.305 12.3246C22.4331 12.2716 22.5703 12.2442 22.7089 12.2442C22.8475 12.2442 22.9848 12.2716 23.1128 12.3246C23.2409 12.3776 23.3573 12.4554 23.4553 12.5534C23.5533 12.6514 23.631 12.7678 23.6841 12.8958C23.7371 13.0239 23.7644 13.1611 23.7644 13.2997C23.7644 13.8836 23.2923 14.3557 22.7094 14.3557Z" fill="url(#paint1_radial_510_557)"/>
<path d="M18.0041 20.938C19.6288 20.938 20.9458 19.6209 20.9458 17.9963C20.9458 16.3717 19.6288 15.0547 18.0041 15.0547C16.3795 15.0547 15.0625 16.3717 15.0625 17.9963C15.0625 19.6209 16.3795 20.938 18.0041 20.938Z" fill="url(#paint2_radial_510_557)"/>
<defs>
<radialGradient id="paint0_radial_510_557" cx="0" cy="0" r="1" gradientUnits="userSpaceOnUse" gradientTransform="translate(9.56255 38.7728) rotate(-90) scale(35.6787)">
<stop stop-color="#FFDD55"/>
<stop offset="0.1" stop-color="#FFDD55"/>
<stop offset="0.5" stop-color="#FF543E"/>
<stop offset="1" stop-color="#C837AB"/>
</radialGradient>
<radialGradient id="paint1_radial_510_557" cx="0" cy="0" r="1" gradientUnits="userSpaceOnUse" gradientTransform="translate(13.8731 28.2119) rotate(-90) scale(17.5117 17.4825)">
<stop stop-color="#FFDD55"/>
<stop offset="0.1" stop-color="#FFDD55"/>
<stop offset="0.5" stop-color="#FF543E"/>
<stop offset="1" stop-color="#C837AB"/>
</radialGradient>
<radialGradient id="paint2_radial_510_557" cx="0" cy="0" r="1" gradientUnits="userSpaceOnUse" gradientTransform="translate(16.6253 21.3911) rotate(-90) scale(5.83075 5.83075)">
<stop stop-color="#FFDD55"/>
<stop offset="0.1" stop-color="#FFDD55"/>
<stop offset="0.5" stop-color="#FF543E"/>
<stop offset="1" stop-color="#C837AB"/>
</radialGradient>
</defs>
</svg>
