<svg width="36" height="36" viewBox="0 0 36 36" fill="none" xmlns="http://www.w3.org/2000/svg">
<path d="M13.746 25.75V14.5331H9.97263V25.75H13.746ZM11.8598 13.0007C13.1756 13.0007 13.9947 12.1394 13.9947 11.0631C13.9702 9.96242 13.1757 9.125 11.8848 9.125C10.5941 9.125 9.75 9.96243 9.75 11.0631C9.75 12.1395 10.5688 13.0007 11.8352 13.0007H11.8597H11.8598ZM15.8346 25.75H19.6079V19.486C19.6079 19.1507 19.6325 18.8158 19.7321 18.5762C20.0049 17.9064 20.6258 17.2126 21.6681 17.2126C23.0336 17.2126 23.5798 18.2413 23.5798 19.7491V25.7499H27.3529V19.3183C27.3529 15.8729 25.4914 14.2698 23.0087 14.2698C20.9731 14.2698 20.0794 15.394 19.5828 16.1597H19.608V14.5329H15.8346C15.8842 15.5854 15.8346 25.7498 15.8346 25.7498L15.8346 25.75Z" fill="#0A66C2"/>
<rect x="0.5" y="0.5" width="35" height="35" rx="7.5" stroke="#0A66C2"/>
</svg>
