<svg width="512" height="512" viewBox="0 0 512 512" fill="none" xmlns="http://www.w3.org/2000/svg">
<path d="M187.82 420.944C187.13 420.944 186.44 420.944 185.749 420.591C168.49 413.504 152.265 404.293 137.767 392.248C123.268 380.557 110.841 366.739 100.139 351.151C78.3916 318.909 67 280.999 67 241.673C67 215.81 71.8328 190.654 81.8437 166.917C91.1641 143.888 104.972 123.339 121.887 105.979C139.147 88.2639 159.169 74.4465 181.607 64.8805C204.736 54.9602 229.245 50 254.445 50C279.644 50 304.153 55.3146 327.627 65.5889C350.065 75.5089 370.432 89.6811 388.037 107.395C405.643 125.464 419.451 146.014 429.118 169.043C439.127 192.78 444.304 218.289 444.304 244.153C444.304 268.954 438.438 295.171 427.734 319.263C418.417 340.519 405.297 359.298 391.489 372.053C390.799 372.763 389.763 373.47 389.073 374.18C381.134 381.264 375.61 386.578 366.98 387.994C358.004 389.415 346.959 386.224 328.317 378.077C326.246 377.367 283.096 353.631 278.263 351.151L280.68 346.543C299.666 356.818 328.662 372.763 330.389 373.47C365.599 389.058 371.122 384.097 385.621 370.636C386.311 369.926 387.002 369.219 388.037 368.509C412.548 345.837 439.127 297.651 439.127 244.507C439.127 142.471 354.898 55.6686 254.79 55.6686C206.116 55.6686 160.204 74.8005 126.029 110.23C91.5093 145.659 72.5232 192.426 72.5232 242.382C72.5232 319.617 117.745 387.994 188.166 415.984C188.511 415.984 188.856 415.984 188.856 415.631L255.825 312.532L273.776 318.909L272.049 323.868L257.897 318.909L192.653 418.464C191.618 419.881 189.892 420.944 187.82 420.944Z" fill="#1A1B1F"/>
<path d="M247.241 330.251C250.348 325.291 256.907 323.874 262.085 326.707C262.085 326.707 262.085 326.707 262.43 326.707C262.43 326.707 301.438 348.319 320.424 356.113C325.947 358.24 334.232 356.113 338.029 351.863C363.92 324.583 379.798 285.256 379.798 243.449C379.798 148.853 291.772 75.5141 195.461 104.921C152.311 118.029 118.136 152.042 104.673 195.974C77.0569 284.902 130.563 367.808 208.234 385.166C209.614 385.52 210.995 384.813 211.685 383.749L247.241 330.251Z" fill="#1A1B1F"/>
<path d="M223.74 462.397L195.434 459.917C188.53 459.56 184.733 451.413 188.875 445.746L252.392 349.375C255.499 344.772 263.439 339.458 268.617 341.581L299.685 356.816L243.417 451.766C239.275 458.853 231.68 463.104 223.74 462.397Z" fill="#1A1B1F"/>
</svg>
