<svg width="117" height="67" viewBox="0 0 117 67" fill="none" xmlns="http://www.w3.org/2000/svg">
<path fill-rule="evenodd" clip-rule="evenodd" d="M81.7633 8.54364C77.7869 13.5602 72.8191 20.0266 69.7299 24.2066C66.8363 28.1224 64.4357 31.3284 64.3955 31.3311C64.3552 31.3339 61.9997 28.1224 59.1611 24.1942L54 17.0523L52.8327 17.0485C51.9325 17.0456 51.6886 17.0823 51.7665 17.2087C51.8221 17.2989 54.3644 20.816 57.4161 25.0248C60.4678 29.2334 62.9923 32.7483 63.0262 32.8356C63.06 32.923 60.4237 36.6182 57.1675 41.0473C53.9115 45.4765 51.1593 49.2334 51.0514 49.3963L50.8554 49.6922H52.0304H53.2053L58.7708 42.0878C61.8318 37.9056 64.366 34.4869 64.4025 34.4908C64.4389 34.4949 66.9136 37.8624 69.9019 41.9743C72.8901 46.0862 75.4036 49.5072 75.4875 49.5765C75.5714 49.646 76.1502 49.6856 76.7738 49.6646L77.9075 49.6266L71.8114 41.2738L65.7153 32.921L76.6054 17.2799C82.5951 8.67739 87.759 1.27023 88.0808 0.819462C88.4029 0.368823 88.6368 0 88.601 0C88.5651 0 85.4882 3.84465 81.7633 8.54364ZM0 33.3638V49.6922H0.993865H1.98773L2.00668 42.5137C2.01702 38.5656 2.06181 31.8082 2.10607 27.4975L2.1865 19.6599L12.3239 34.3138C21.5389 47.6345 23.0748 49.7792 29.2024 57.8852C32.9101 62.7897 36.0337 66.8911 36.1441 66.9992C36.2544 67.1074 28.7409 55.9266 19.4474 42.1531L2.55012 17.1104L1.27506 17.0729L0 17.0354V33.3638ZM27.5632 33.3685V49.6922H38.7607H49.9583V48.8399V47.9877H39.8209H29.6834V40.7764V33.5652H39.092H48.5006V32.7129V31.8607H39.092H29.6834V25.305V18.7493H39.6884H49.6933V17.8971V17.0448H38.6282H27.5632V33.3685ZM78.8467 17.8971V18.7493H84.6111H90.3755V34.2207V49.6922H91.3688H92.3622L92.3958 34.2535L92.4295 18.8148L98.227 18.7806L104.025 18.7465V17.8956V17.0448H91.4356H78.8467V17.8971ZM113.253 40.313C112.156 40.6996 111.562 41.7096 111.836 42.7189C112.063 43.5517 112.685 43.9671 114.228 44.3174C115.609 44.6307 116.05 45.0442 115.791 45.7803C115.453 46.7386 113.455 46.7757 112.832 45.8353C112.653 45.5646 112.501 45.4965 112.078 45.4965C111.57 45.4965 111.553 45.5106 111.639 45.8491C111.898 46.8711 112.872 47.4632 114.295 47.4632C115.823 47.4632 116.818 46.785 116.974 45.6368C117.145 44.3749 116.5 43.7283 114.603 43.2613C113.272 42.9337 112.869 42.6434 112.929 42.0557C112.986 41.4928 113.5 41.1479 114.281 41.1479C114.981 41.1479 115.491 41.4151 115.713 41.8978C115.834 42.1597 115.958 42.2187 116.386 42.2187C116.908 42.2187 116.911 42.2154 116.829 41.7926C116.78 41.5389 116.539 41.1719 116.233 40.8855C115.448 40.1504 114.325 39.9347 113.253 40.313ZM109.034 43.0574C108.997 45.6215 108.972 45.8872 108.736 46.1448C108.531 46.369 108.355 46.4187 107.876 46.3877C107.363 46.3544 107.236 46.287 107.008 45.9278C106.784 45.5738 106.659 45.5058 106.228 45.5016C105.719 45.4965 105.715 45.5002 105.799 45.9227C105.986 46.8675 106.811 47.4629 107.934 47.4629C108.86 47.4629 109.459 47.1319 109.822 46.4193C110.103 45.8673 110.12 45.6769 110.12 43.0431V40.252H109.598H109.075L109.034 43.0574ZM103.256 46.1783C102.975 46.4562 103.067 47.0446 103.428 47.2786C103.735 47.4775 103.784 47.4775 104.091 47.2786C104.313 47.1349 104.422 46.9435 104.422 46.6998C104.422 46.2443 104.204 46.021 103.76 46.021C103.57 46.021 103.343 46.0918 103.256 46.1783Z" fill="#1A1B1F"/>
</svg>
