<svg width="562" height="200" viewBox="0 0 562 200" fill="none" xmlns="http://www.w3.org/2000/svg">
<path d="M158.197 193.46H183.319V159.12H158.197V2.71998H137.15L0 172.38V193.46H121.534V235.62H158.197V193.46ZM121.873 63.58V159.12H43.7929L121.873 63.58Z" fill="#1A1B1F"/>
<path d="M338.769 0C272.91 0 219.951 53.38 219.951 119C219.951 184.96 272.91 238 338.769 238C404.288 238 457.586 184.96 457.586 119C457.586 53.38 404.288 0 338.769 0ZM338.769 34.68C384.598 34.68 420.923 70.04 420.923 119C420.923 168.3 384.598 203.32 338.769 203.32C292.939 203.32 256.954 168.3 256.954 119C256.954 70.04 292.939 34.68 338.769 34.68Z" fill="#1A1B1F"/>
<path d="M643.878 193.46H669V159.12H643.878V2.71998H622.831L485.681 172.38V193.46H607.215V235.62H643.878V193.46ZM607.554 63.58V159.12H529.474L607.554 63.58Z" fill="#1A1B1F"/>
</svg>
