<svg width="138" height="138" viewBox="0 0 138 138" fill="none" xmlns="http://www.w3.org/2000/svg">
<path d="M62.1207 133.082C65.1585 133.397 67.8657 131.184 68.1802 128.146C68.4947 125.108 66.2984 122.387 63.2606 122.073C61.657 121.907 60.1356 122.45 59.0046 123.44L58.5751 127.588L62.7077 128.016L62.8402 126.736L60.373 126.48L60.6045 124.244C61.308 123.772 62.1726 123.55 63.0978 123.645C65.2412 123.867 66.7511 125.691 66.5148 127.973C66.277 130.271 64.4253 131.747 62.282 131.525C61.11 131.404 60.1078 130.848 59.4182 129.982L58.235 130.872C59.1394 132.072 60.517 132.916 62.1207 133.082Z" fill="white"/>
<path d="M45.9464 125.977C48.1761 126.872 50.2504 125.784 51.0708 123.742C51.9259 121.612 51.0395 119.452 48.8241 118.562C47.5726 118.06 46.3202 118.141 45.2863 118.428L45.728 119.574C46.5659 119.443 47.464 119.536 48.2983 119.871C49.5786 120.386 50.2478 121.506 49.7393 122.772L44.2585 120.571C43.8663 121.048 43.5368 121.952 43.5675 122.666C43.5971 124.131 44.3927 125.353 45.9464 125.977ZM46.4578 124.662C45.5659 124.304 45.1092 123.569 45.0729 122.786C45.0445 122.524 45.0967 122.227 45.1834 122.012L49.312 123.67C48.8616 124.625 47.6805 125.153 46.4578 124.662Z" fill="white"/>
<path d="M34.6206 118.118L33.7194 117.514L32.8902 118.749L33.7913 119.354L32.3402 121.517L33.6275 122.381L35.0786 120.218L35.9669 120.814L36.7961 119.578L35.9079 118.982L39.3975 113.781L38.1102 112.918L34.6206 118.118Z" fill="white"/>
<path d="M19.2055 106.548C18.8949 106.142 18.3546 106.047 17.985 106.329C17.6154 106.612 17.5767 107.148 17.8872 107.555C18.2072 107.974 18.7352 108.078 19.1048 107.796C19.4744 107.513 19.5254 106.967 19.2055 106.548ZM26.4983 101.973L25.5573 100.741L19.3973 105.446L20.3383 106.678L26.4983 101.973Z" fill="white"/>
<path d="M13.1302 95.2232C13.6288 96.2736 14.5623 97.0832 15.8026 97.1293L14.5047 97.8656L14.9567 98.8179L21.9591 95.4939L21.2943 94.0934L17.9051 95.7022C16.3506 96.4402 15.1594 96.0275 14.5744 94.7951C14.0359 93.6607 14.3064 92.64 15.7909 91.9353L19.4461 90.2001L18.7813 88.7997L15.0561 90.568C12.9834 91.552 12.1995 93.2626 13.1302 95.2232Z" fill="white"/>
<path d="M8.8378 71.6019L8.77282 70.5187L7.28726 70.6078L7.35224 71.691L4.7525 71.847L4.84533 73.3945L7.44507 73.2385L7.50912 74.3063L8.99469 74.2171L8.93063 73.1494L15.1824 72.7743L15.0896 71.2269L8.8378 71.6019Z" fill="white"/>
<path d="M7.84912 59.8521C7.52201 62.029 9.02239 64.0416 11.1993 64.3687C13.3762 64.6958 15.3865 63.2107 15.7136 61.0338C16.0407 58.8569 14.558 56.8313 12.381 56.5042C10.2041 56.1771 8.17623 57.6752 7.84912 59.8521ZM9.32083 60.0732C9.51203 58.8008 10.6943 57.8184 12.1507 58.0372C13.6071 58.2561 14.4331 59.5403 14.2419 60.8127C14.0507 62.0851 12.886 63.0545 11.4297 62.8356C9.97327 62.6168 9.12964 61.3456 9.32083 60.0732Z" fill="white"/>
<path d="M20.7313 44.5865L13.6133 41.5182L13.0058 42.9275L16.4509 44.4126C18.0311 45.0938 18.5009 46.2754 17.9608 47.5282C17.4638 48.6813 16.5183 49.1516 15.0092 48.5011L11.2936 46.8994L10.6799 48.323L14.4668 49.9554C16.5737 50.8636 18.3763 50.3239 19.2355 48.3309C19.6957 47.2631 19.6943 46.0133 18.9044 45.0651L20.314 45.5546L20.7313 44.5865Z" fill="white"/>
<path d="M20.1794 31.061C18.8334 32.8029 19.1512 35.2819 20.8931 36.6279C22.6351 37.9739 25.1141 37.656 26.4601 35.9141C27.2089 34.945 27.4403 33.7329 27.1988 32.6255L25.8327 32.7454C25.9593 33.6464 25.7753 34.3663 25.2824 35.0042C24.4957 36.0223 23.0064 36.3017 21.841 35.4012C20.6757 34.5007 20.5703 32.9891 21.357 31.971C21.8499 31.3331 22.4878 30.964 23.4039 30.8686L23.1752 29.5165C22.0428 29.5622 20.9282 30.0919 20.1794 31.061Z" fill="white"/>
<path d="M30.9209 20.2944C30.1873 20.8662 29.6212 21.7791 29.7555 22.834L27.1253 19.4593L25.9026 20.4122L32.5734 28.9714L33.7962 28.0184L31.49 25.0594C30.4321 23.7022 30.5764 22.4498 31.6524 21.6112C32.6428 20.8392 33.6979 20.8817 34.7081 22.1778L37.1954 25.3691L38.4181 24.4162L35.8832 21.1637C34.4728 19.354 32.6328 18.9602 30.9209 20.2944Z" fill="white"/>
<path d="M55.1028 10.2635L53.125 8.95267L55.0818 7.87591L54.6152 7.10295L52.771 8.35799L52.2806 6.19407L51.4128 6.42941L52.0787 8.52967L49.8722 8.38918L49.86 9.29197L52.0777 9.23669L51.0331 11.3671L51.8715 11.7341L52.7069 9.48369L54.5647 11.0037L55.1028 10.2635Z" fill="white"/>
<path d="M78.4485 4.99967C75.4303 4.53328 72.6155 6.60815 72.1492 9.62631C71.6828 12.6445 73.7399 15.4722 76.7581 15.9386C78.3515 16.1848 79.8981 15.7179 81.0774 14.7864L81.7142 10.6652L77.6083 10.0307L77.4118 11.3023L79.8631 11.6811L79.5198 13.9026C78.7935 14.3394 77.9188 14.5179 76.9996 14.3759C74.87 14.0468 73.4534 12.1494 73.8038 9.882C74.1565 7.59922 76.0798 6.21797 78.2094 6.54705C79.3737 6.72698 80.3469 7.33226 80.9922 8.23198L82.2185 7.40187C81.3754 6.15785 80.0418 5.24588 78.4485 4.99967Z" fill="white"/>
<path d="M94.246 12.9089C92.064 11.9027 89.9378 12.8854 89.016 14.8845C88.0552 16.968 88.8323 19.17 91.0003 20.1697C92.225 20.7345 93.4799 20.7157 94.5269 20.4815L94.1432 19.3144C93.2998 19.4035 92.4075 19.2652 91.591 18.8887C90.3381 18.3109 89.726 17.158 90.2972 15.9192L95.6609 18.3925C96.0765 17.9354 96.4508 17.0496 96.456 16.335C96.4999 14.87 95.7664 13.61 94.246 12.9089ZM93.6694 14.1965C94.5422 14.5989 94.9615 15.3556 94.9585 16.1395C94.9737 16.4026 94.9067 16.6961 94.8093 16.9073L90.769 15.0441C91.2667 14.1128 92.4728 13.6447 93.6694 14.1965Z" fill="white"/>
<path d="M105.17 21.326L106.039 21.975L106.929 20.7823L106.06 20.1333L107.617 18.0461L106.375 17.1189L104.817 19.2061L103.96 18.5663L103.07 19.759L103.927 20.3988L100.181 25.418L101.424 26.3453L105.17 21.326Z" fill="white"/>
<path d="M119.985 33.6537C120.275 34.0753 120.81 34.1968 121.193 33.9334C121.576 33.6699 121.642 33.1358 121.352 32.7142C121.054 32.2798 120.531 32.1496 120.148 32.413C119.765 32.6764 119.687 33.2193 119.985 33.6537ZM112.472 37.8578L113.35 39.1354L119.738 34.7451L118.86 33.4675L112.472 37.8578Z" fill="white"/>
<path d="M125.476 45.2687C125.031 44.1947 124.139 43.3393 122.903 43.2311L124.236 42.5608L123.832 41.587L116.672 44.5559L117.266 45.9879L120.732 44.551C122.321 43.8919 123.49 44.3638 124.013 45.6239C124.494 46.7839 124.172 47.7898 122.654 48.4192L118.917 49.9689L119.511 51.401L123.32 49.8215C125.439 48.9428 126.308 47.2736 125.476 45.2687Z" fill="white"/>
<path d="M128.579 69.0739L128.59 70.159L130.078 70.1444L130.067 69.0593L132.672 69.0339L132.656 67.4837L130.052 67.5092L130.042 66.4395L128.554 66.4541L128.564 67.5237L122.301 67.5849L122.317 69.1351L128.579 69.0739Z" fill="white"/>
<path d="M128.987 80.8584C129.423 78.7006 128.026 76.6153 125.868 76.1795C123.71 75.7437 121.628 77.1261 121.192 79.2839C120.756 81.4417 122.136 83.539 124.293 83.9749C126.451 84.4107 128.552 83.0161 128.987 80.8584ZM127.529 80.5637C127.274 81.825 126.044 82.7469 124.6 82.4553C123.157 82.1637 122.396 80.8398 122.651 79.5785C122.906 78.3173 124.117 77.4075 125.561 77.6991C127.005 77.9906 127.783 79.3025 127.529 80.5637Z" fill="white"/>
<path d="M115.359 95.4597L122.314 98.881L122.992 97.5038L119.625 95.8479C118.081 95.0884 117.671 93.8847 118.273 92.6606C118.828 91.5338 119.795 91.1115 121.27 91.8368L124.901 93.6227L125.585 92.2317L121.885 90.4116C119.826 89.3989 117.998 89.8475 117.04 91.795C116.527 92.8383 116.466 94.0867 117.207 95.0733L115.824 94.5138L115.359 95.4597Z" fill="white"/>
<path d="M115.232 108.994C116.664 107.322 116.471 104.83 114.798 103.399C113.126 101.967 110.634 102.16 109.203 103.833C108.406 104.763 108.114 105.962 108.3 107.08L109.67 107.029C109.589 106.123 109.809 105.413 110.333 104.8C111.17 103.823 112.671 103.619 113.79 104.576C114.909 105.534 114.938 107.049 114.102 108.027C113.577 108.639 112.922 108.976 112.002 109.025L112.163 110.387C113.296 110.398 114.436 109.925 115.232 108.994Z" fill="white"/>
<path d="M103.953 119.21C104.715 118.676 105.326 117.792 105.244 116.732L107.702 120.234L108.971 119.344L102.738 110.461L101.469 111.351L103.624 114.422C104.612 115.831 104.405 117.075 103.289 117.858C102.261 118.579 101.209 118.484 100.265 117.139L97.941 113.827L96.6721 114.718L99.0408 118.093C100.359 119.971 102.177 120.457 103.953 119.21Z" fill="white"/>
<path d="M79.2924 128.017L81.202 129.426L79.1938 130.403L79.6211 131.198L81.5258 130.037L81.9072 132.223L82.7857 132.031L82.2258 129.9L84.4225 130.151L84.48 129.25L82.2623 129.194L83.4123 127.119L82.5934 126.71L81.6463 128.916L79.867 127.305L79.2924 128.017Z" fill="white"/>
</svg>
