<svg width="160" height="160" viewBox="0 0 160 160" fill="none" xmlns="http://www.w3.org/2000/svg">
<circle cx="80" cy="80" r="80" fill="#935CFF"/>
<path d="M73.1207 145.082C76.1585 145.397 78.8657 143.184 79.1802 140.146C79.4947 137.108 77.2984 134.387 74.2606 134.073C72.657 133.907 71.1356 134.45 70.0046 135.44L69.5751 139.588L73.7077 140.016L73.8402 138.736L71.373 138.48L71.6045 136.244C72.308 135.772 73.1726 135.55 74.0978 135.645C76.2412 135.867 77.7511 137.691 77.5148 139.973C77.277 142.271 75.4253 143.747 73.282 143.525C72.11 143.404 71.1078 142.848 70.4182 141.982L69.235 142.872C70.1394 144.072 71.517 144.916 73.1207 145.082Z" fill="white"/>
<path d="M56.9464 137.977C59.1761 138.872 61.2504 137.784 62.0708 135.742C62.9259 133.612 62.0395 131.452 59.8241 130.562C58.5726 130.06 57.3202 130.141 56.2863 130.428L56.728 131.574C57.5659 131.443 58.464 131.536 59.2983 131.871C60.5786 132.386 61.2478 133.506 60.7393 134.772L55.2585 132.571C54.8663 133.048 54.5368 133.952 54.5675 134.666C54.5971 136.131 55.3927 137.353 56.9464 137.977ZM57.4578 136.662C56.5659 136.304 56.1092 135.569 56.0729 134.786C56.0445 134.524 56.0967 134.227 56.1834 134.012L60.312 135.67C59.8616 136.625 58.6805 137.153 57.4578 136.662Z" fill="white"/>
<path d="M45.6206 130.118L44.7194 129.514L43.8902 130.749L44.7913 131.354L43.3402 133.517L44.6275 134.381L46.0786 132.218L46.9669 132.814L47.7961 131.578L46.9079 130.982L50.3975 125.781L49.1102 124.918L45.6206 130.118Z" fill="white"/>
<path d="M30.2055 118.548C29.8949 118.142 29.3546 118.047 28.985 118.329C28.6154 118.612 28.5767 119.148 28.8872 119.555C29.2072 119.974 29.7352 120.078 30.1048 119.796C30.4744 119.513 30.5254 118.967 30.2055 118.548ZM37.4983 113.973L36.5573 112.741L30.3973 117.446L31.3383 118.678L37.4983 113.973Z" fill="white"/>
<path d="M24.1302 107.223C24.6288 108.274 25.5623 109.083 26.8026 109.129L25.5047 109.866L25.9567 110.818L32.9591 107.494L32.2943 106.093L28.9051 107.702C27.3506 108.44 26.1594 108.027 25.5744 106.795C25.0359 105.661 25.3064 104.64 26.7909 103.935L30.4461 102.2L29.7813 100.8L26.0561 102.568C23.9834 103.552 23.1995 105.263 24.1302 107.223Z" fill="white"/>
<path d="M19.8378 83.6019L19.7728 82.5187L18.2873 82.6078L18.3522 83.691L15.7525 83.847L15.8453 85.3945L18.4451 85.2385L18.5091 86.3063L19.9947 86.2171L19.9306 85.1494L26.1824 84.7743L26.0896 83.2269L19.8378 83.6019Z" fill="white"/>
<path d="M18.8491 71.8521C18.522 74.029 20.0224 76.0416 22.1993 76.3687C24.3762 76.6958 26.3865 75.2107 26.7136 73.0338C27.0407 70.8569 25.558 68.8313 23.381 68.5042C21.2041 68.1771 19.1762 69.6752 18.8491 71.8521ZM20.3208 72.0732C20.512 70.8008 21.6943 69.8184 23.1507 70.0372C24.6071 70.2561 25.4331 71.5403 25.2419 72.8127C25.0507 74.0851 23.886 75.0545 22.4297 74.8356C20.9733 74.6168 20.1296 73.3456 20.3208 72.0732Z" fill="white"/>
<path d="M31.7313 56.5865L24.6133 53.5182L24.0058 54.9275L27.4509 56.4126C29.0311 57.0938 29.5009 58.2754 28.9608 59.5282C28.4638 60.6813 27.5183 61.1516 26.0092 60.5011L22.2936 58.8994L21.6799 60.323L25.4668 61.9554C27.5737 62.8636 29.3763 62.3239 30.2355 60.3309C30.6957 59.2631 30.6943 58.0133 29.9044 57.0651L31.314 57.5546L31.7313 56.5865Z" fill="white"/>
<path d="M31.1794 43.061C29.8334 44.8029 30.1512 47.2819 31.8931 48.6279C33.6351 49.9739 36.1141 49.656 37.4601 47.9141C38.2089 46.945 38.4403 45.7329 38.1988 44.6255L36.8327 44.7454C36.9593 45.6464 36.7753 46.3663 36.2824 47.0042C35.4957 48.0223 34.0064 48.3017 32.841 47.4012C31.6757 46.5007 31.5703 44.9891 32.357 43.971C32.8499 43.3331 33.4878 42.964 34.4039 42.8686L34.1752 41.5165C33.0428 41.5622 31.9282 42.0919 31.1794 43.061Z" fill="white"/>
<path d="M41.9209 32.2944C41.1873 32.8662 40.6212 33.7791 40.7555 34.834L38.1253 31.4593L36.9026 32.4122L43.5734 40.9714L44.7962 40.0184L42.49 37.0594C41.4321 35.7022 41.5764 34.4498 42.6524 33.6112C43.6428 32.8392 44.6979 32.8817 45.7081 34.1778L48.1954 37.3691L49.4181 36.4162L46.8832 33.1637C45.4728 31.354 43.6328 30.9602 41.9209 32.2944Z" fill="white"/>
<path d="M66.1028 22.2635L64.125 20.9527L66.0818 19.8759L65.6152 19.103L63.771 20.358L63.2806 18.1941L62.4128 18.4294L63.0787 20.5297L60.8722 20.3892L60.86 21.292L63.0777 21.2367L62.0331 23.3671L62.8715 23.7341L63.7069 21.4837L65.5647 23.0037L66.1028 22.2635Z" fill="white"/>
<path d="M89.4485 16.9997C86.4303 16.5333 83.6155 18.6082 83.1492 21.6263C82.6828 24.6445 84.7399 27.4722 87.7581 27.9386C89.3515 28.1848 90.8981 27.7179 92.0774 26.7864L92.7142 22.6652L88.6083 22.0307L88.4118 23.3023L90.8631 23.6811L90.5198 25.9026C89.7935 26.3394 88.9188 26.5179 87.9996 26.3759C85.87 26.0468 84.4534 24.1494 84.8038 21.882C85.1565 19.5992 87.0798 18.218 89.2094 18.547C90.3737 18.727 91.3469 19.3323 91.9922 20.232L93.2185 19.4019C92.3754 18.1579 91.0418 17.2459 89.4485 16.9997Z" fill="white"/>
<path d="M105.246 24.9089C103.064 23.9027 100.938 24.8854 100.016 26.8845C99.0552 28.968 99.8323 31.17 102 32.1697C103.225 32.7345 104.48 32.7157 105.527 32.4815L105.143 31.3144C104.3 31.4035 103.408 31.2652 102.591 30.8887C101.338 30.3109 100.726 29.158 101.297 27.9192L106.661 30.3925C107.076 29.9354 107.451 29.0496 107.456 28.335C107.5 26.87 106.766 25.61 105.246 24.9089ZM104.669 26.1965C105.542 26.5989 105.961 27.3556 105.958 28.1395C105.974 28.4026 105.907 28.6961 105.809 28.9073L101.769 27.0441C102.267 26.1128 103.473 25.6447 104.669 26.1965Z" fill="white"/>
<path d="M116.17 33.326L117.039 33.975L117.929 32.7823L117.06 32.1333L118.617 30.0461L117.375 29.1189L115.817 31.2061L114.96 30.5663L114.07 31.759L114.927 32.3988L111.181 37.418L112.424 38.3453L116.17 33.326Z" fill="white"/>
<path d="M130.985 45.6537C131.275 46.0753 131.81 46.1968 132.193 45.9334C132.576 45.6699 132.642 45.1358 132.352 44.7142C132.054 44.2798 131.531 44.1496 131.148 44.413C130.765 44.6764 130.687 45.2193 130.985 45.6537ZM123.472 49.8578L124.35 51.1354L130.738 46.7451L129.86 45.4675L123.472 49.8578Z" fill="white"/>
<path d="M136.476 57.2687C136.031 56.1947 135.139 55.3393 133.903 55.2311L135.236 54.5608L134.832 53.587L127.672 56.5559L128.266 57.9879L131.732 56.551C133.321 55.8919 134.49 56.3638 135.013 57.6239C135.494 58.7839 135.172 59.7898 133.654 60.4192L129.917 61.9689L130.511 63.401L134.32 61.8215C136.439 60.9428 137.308 59.2736 136.476 57.2687Z" fill="white"/>
<path d="M139.579 81.0739L139.59 82.159L141.078 82.1444L141.067 81.0593L143.672 81.0339L143.656 79.4837L141.052 79.5092L141.042 78.4395L139.554 78.4541L139.564 79.5237L133.301 79.5849L133.317 81.1351L139.579 81.0739Z" fill="white"/>
<path d="M139.987 92.8584C140.423 90.7006 139.026 88.6153 136.868 88.1795C134.71 87.7437 132.628 89.1261 132.192 91.2839C131.756 93.4417 133.136 95.539 135.293 95.9749C137.451 96.4107 139.552 95.0161 139.987 92.8584ZM138.529 92.5637C138.274 93.825 137.044 94.7469 135.6 94.4553C134.157 94.1637 133.396 92.8398 133.651 91.5785C133.906 90.3173 135.117 89.4075 136.561 89.6991C138.005 89.9906 138.783 91.3025 138.529 92.5637Z" fill="white"/>
<path d="M126.359 107.46L133.314 110.881L133.992 109.504L130.625 107.848C129.081 107.088 128.671 105.885 129.273 104.661C129.828 103.534 130.795 103.112 132.27 103.837L135.901 105.623L136.585 104.232L132.885 102.412C130.826 101.399 128.998 101.848 128.04 103.795C127.527 104.838 127.466 106.087 128.207 107.073L126.824 106.514L126.359 107.46Z" fill="white"/>
<path d="M126.232 120.994C127.664 119.322 127.471 116.83 125.798 115.399C124.126 113.967 121.634 114.16 120.203 115.833C119.406 116.763 119.114 117.962 119.3 119.08L120.67 119.029C120.589 118.123 120.809 117.413 121.333 116.8C122.17 115.823 123.671 115.619 124.79 116.576C125.909 117.534 125.938 119.049 125.102 120.027C124.577 120.639 123.922 120.976 123.002 121.025L123.163 122.387C124.296 122.398 125.436 121.925 126.232 120.994Z" fill="white"/>
<path d="M114.953 131.21C115.715 130.676 116.326 129.792 116.244 128.732L118.702 132.234L119.971 131.344L113.738 122.461L112.469 123.351L114.624 126.422C115.612 127.831 115.405 129.075 114.289 129.858C113.261 130.579 112.209 130.484 111.265 129.139L108.941 125.827L107.672 126.718L110.041 130.093C111.359 131.971 113.177 132.457 114.953 131.21Z" fill="white"/>
<path d="M90.2924 140.017L92.202 141.426L90.1938 142.403L90.6211 143.198L92.5258 142.037L92.9072 144.223L93.7857 144.031L93.2258 141.9L95.4225 142.151L95.48 141.25L93.2623 141.194L94.4123 139.119L93.5934 138.71L92.6463 140.916L90.867 139.305L90.2924 140.017Z" fill="white"/>
</svg>
