<svg width="23" height="23" viewBox="0 0 23 23" fill="none" xmlns="http://www.w3.org/2000/svg">
<path d="M21.4185 5.27107L17.2497 9.3919C17.2497 9.3919 16.0039 9.3919 14.7581 8.14607C13.5122 6.90024 13.5122 5.6544 13.5122 5.6544L17.681 1.48565C15.3331 0.910653 12.506 1.67732 10.781 3.40232C8.19348 5.98982 10.4935 9.29607 9.82264 9.9669C6.18098 13.7523 2.44348 16.6273 2.34764 16.7711C1.24556 17.8732 1.19764 19.6461 2.25181 20.7002C3.30598 21.7544 5.07889 21.7065 6.18098 20.6044C6.32473 20.4607 9.39139 16.5794 12.9851 12.9857C13.656 12.3148 16.8185 14.7586 19.5018 12.1232C21.1789 10.3982 21.9935 7.61899 21.4185 5.27107ZM4.50389 19.694C3.83306 19.694 3.30598 19.1669 3.30598 18.4961C3.30598 17.7773 3.83306 17.2502 4.50389 17.2502C5.17473 17.2502 5.70181 17.7773 5.70181 18.4482C5.70181 19.119 5.17473 19.694 4.50389 19.694Z" fill="#607D8B"/>
</svg>
