<svg width="36" height="36" viewBox="0 0 36 36" fill="none" xmlns="http://www.w3.org/2000/svg">
<path d="M20.2495 18.6889C19.838 18.5341 19.838 17.941 19.8123 17.5283C19.7095 16.0583 20.2238 13.8146 19.6066 12.8603C19.1694 12.293 17.0607 12.3445 15.7749 12.4219C15.4149 12.4735 14.9778 12.5509 14.6692 12.7056C14.3606 12.8603 14.052 13.1182 14.052 13.3504C14.052 13.6856 14.8235 13.634 15.1063 14.0725C15.4149 14.5367 15.4149 15.5425 15.4149 16.3678C15.4149 17.322 15.2606 18.5857 14.8749 18.6373C14.2834 18.6631 13.9491 18.0699 13.6405 17.6315C13.0234 16.7804 12.4062 15.723 11.9433 14.6914C11.7119 14.1498 11.5833 13.5567 11.249 13.3246C10.7347 12.9635 9.80889 12.9377 8.90884 12.9635C8.08593 12.9893 6.90301 12.8861 6.67156 13.3761C6.49155 13.9177 6.87729 14.4335 7.08302 14.872C8.13736 17.1673 9.26886 19.1789 10.6575 21.0874C11.9433 22.8669 13.1519 24.2853 15.5178 25.0332C16.1864 25.2395 19.118 25.8327 19.7095 25.0332C19.9152 24.7237 19.8637 24.0274 19.9666 23.5116C20.0695 22.9958 20.198 22.48 20.6866 22.4542C21.0981 22.4284 21.3295 22.7895 21.5867 23.0474C21.8696 23.3311 22.101 23.5632 22.3067 23.8211C22.7953 24.3111 23.3097 24.9816 23.9268 25.2395C24.7755 25.6006 26.087 25.4974 27.3213 25.4459C28.3242 25.4201 29.0443 25.2137 29.1214 24.6206C29.1728 24.1564 28.6585 23.4858 28.3499 23.099C27.5785 22.1447 27.2185 21.8611 26.3441 20.9842C25.9584 20.5973 25.4698 20.1847 25.4698 19.7205C25.4441 19.4368 25.6755 19.1789 25.8812 18.8952C26.7813 17.5541 27.6813 16.5999 28.5042 15.2072C28.7357 14.7946 29.2757 13.8404 29.07 13.3761C28.8385 12.8603 27.5528 13.0151 26.7556 13.0151C25.7269 13.0151 24.3897 12.9377 24.1326 13.144C23.644 13.4793 23.4382 14.0209 23.2068 14.5367C22.6925 15.723 21.9982 16.9352 21.2781 17.8378C21.021 18.1473 20.5324 18.792 20.2495 18.6889Z" fill="#0077FF"/>
<rect x="0.5" y="0.5" width="35" height="35" rx="7.5" stroke="#0077FF"/>
</svg>
